{
	"asset": {
		"generator": "Tilt Brush 23.2.28f36f08b",
		"version": "1.1",
		"copyright": "Unknown."
	},
	"buffers": {
		"buffer_sketch": {
			"byteLength": 1226940,
			"type": "arraybuffer",
			"uri": "sketch.bin"
		}
	},
	"accessors": {
		"accessor_position_Stars_0eb4db27-3f82-408d-b5a1-19ebd7d5b711_0_i0": {
			"bufferView": "vec3BufferView",
			"byteOffset": 0,
			"byteStride": 12,
			"componentType": 5126,
			"count": 4468,
			"max": [ 0.286161512, 1.19308627, -0.0715160966 ],
			"min": [ -0.167829663, 0.81586504, -0.48069191 ],
			"type": "VEC3"
		},
		"accessor_normal_Stars_0eb4db27-3f82-408d-b5a1-19ebd7d5b711_0_i0": {
			"bufferView": "vec3BufferView",
			"byteOffset": 53616,
			"byteStride": 12,
			"componentType": 5126,
			"count": 4468,
			"type": "VEC3"
		},
		"accessor_color_Stars_0eb4db27-3f82-408d-b5a1-19ebd7d5b711_0_i0": {
			"bufferView": "vec4BufferView",
			"byteOffset": 0,
			"byteStride": 16,
			"componentType": 5126,
			"count": 4468,
			"type": "VEC4"
		},
		"accessor_uv0_Stars_0eb4db27-3f82-408d-b5a1-19ebd7d5b711_0_i0": {
			"bufferView": "vec4BufferView",
			"byteOffset": 71488,
			"byteStride": 16,
			"componentType": 5126,
			"count": 4468,
			"type": "VEC4"
		},
		"accessor_uv1_Stars_0eb4db27-3f82-408d-b5a1-19ebd7d5b711_0_i0": {
			"bufferView": "vec4BufferView",
			"byteOffset": 142976,
			"byteStride": 16,
			"componentType": 5126,
			"count": 4468,
			"type": "VEC4"
		},
		"accessor_indices_0_Stars_0eb4db27-3f82-408d-b5a1-19ebd7d5b711_0_i0": {
			"bufferView": "ushortBufferView",
			"byteOffset": 0,
			"byteStride": 0,
			"componentType": 5123,
			"count": 6702,
			"max": [ 4467 ],
			"min": [ 0 ],
			"type": "SCALAR"
		},
		"accessor_position_f7SU-dO1FG7_0_0_i3": {
			"bufferView": "vec3BufferView",
			"byteOffset": 107232,
			"byteStride": 12,
			"componentType": 5126,
			"count": 480,
			"max": [ 0.73897171, 2.27670002, 0.369476616 ],
			"min": [ 0.480304152, 2.18612576, -0.0149561185 ],
			"type": "VEC3"
		},
		"accessor_normal_f7SU-dO1FG7_0_0_i3": {
			"bufferView": "vec3BufferView",
			"byteOffset": 112992,
			"byteStride": 12,
			"componentType": 5126,
			"count": 480,
			"type": "VEC3"
		},
		"accessor_color_f7SU-dO1FG7_0_0_i3": {
			"bufferView": "vec4BufferView",
			"byteOffset": 214464,
			"byteStride": 16,
			"componentType": 5126,
			"count": 480,
			"type": "VEC4"
		},
		"accessor_indices_0_f7SU-dO1FG7_0_0_i3": {
			"bufferView": "ushortBufferView",
			"byteOffset": 13404,
			"byteStride": 0,
			"componentType": 5123,
			"count": 864,
			"max": [ 479 ],
			"min": [ 0 ],
			"type": "SCALAR"
		},
		"accessor_position_f7SU-dO1FG7_1_0_i4": {
			"bufferView": "vec3BufferView",
			"byteOffset": 118752,
			"byteStride": 12,
			"componentType": 5126,
			"count": 9996,
			"max": [ 0.767132998, 2.35507488, 0.375704259 ],
			"min": [ 0.406000704, 1.97372878, -0.0479821824 ],
			"type": "VEC3"
		},
		"accessor_normal_f7SU-dO1FG7_1_0_i4": {
			"bufferView": "vec3BufferView",
			"byteOffset": 238704,
			"byteStride": 12,
			"componentType": 5126,
			"count": 9996,
			"type": "VEC3"
		},
		"accessor_color_f7SU-dO1FG7_1_0_i4": {
			"bufferView": "vec4BufferView",
			"byteOffset": 222144,
			"byteStride": 16,
			"componentType": 5126,
			"count": 9996,
			"type": "VEC4"
		},
		"accessor_indices_0_f7SU-dO1FG7_1_0_i4": {
			"bufferView": "ushortBufferView",
			"byteOffset": 15132,
			"byteStride": 0,
			"componentType": 5123,
			"count": 18108,
			"max": [ 9995 ],
			"min": [ 0 ],
			"type": "SCALAR"
		},
		"accessor_position_f7SU-dO1FG7_2_0_i5": {
			"bufferView": "vec3BufferView",
			"byteOffset": 358656,
			"byteStride": 12,
			"componentType": 5126,
			"count": 9960,
			"max": [ 0.701549649, 2.28222394, 0.381361455 ],
			"min": [ 0.413837492, 2.00026369, -0.0144627718 ],
			"type": "VEC3"
		},
		"accessor_normal_f7SU-dO1FG7_2_0_i5": {
			"bufferView": "vec3BufferView",
			"byteOffset": 478176,
			"byteStride": 12,
			"componentType": 5126,
			"count": 9960,
			"type": "VEC3"
		},
		"accessor_color_f7SU-dO1FG7_2_0_i5": {
			"bufferView": "vec4BufferView",
			"byteOffset": 382080,
			"byteStride": 16,
			"componentType": 5126,
			"count": 9960,
			"type": "VEC4"
		},
		"accessor_indices_0_f7SU-dO1FG7_2_0_i5": {
			"bufferView": "ushortBufferView",
			"byteOffset": 51348,
			"byteStride": 0,
			"componentType": 5123,
			"count": 18228,
			"max": [ 9959 ],
			"min": [ 0 ],
			"type": "SCALAR"
		}
	},
	"bufferViews": {
		"ushortBufferView": {
			"buffer": "buffer_sketch",
			"byteLength": 87804,
			"byteOffset": 0,
			"target": 34963
		},
		"vec3BufferView": {
			"buffer": "buffer_sketch",
			"byteLength": 597696,
			"byteOffset": 87804,
			"target": 34962
		},
		"vec4BufferView": {
			"buffer": "buffer_sketch",
			"byteLength": 541440,
			"byteOffset": 685500,
			"target": 34962
		}
	},
	"meshes": {
		"mesh_Stars_0eb4db27-3f82-408d-b5a1-19ebd7d5b711_0_i0": {
			"name": "mesh_Stars_0eb4db27-3f82-408d-b5a1-19ebd7d5b711_0_i0",
			"primitives": [
				{
					"attributes": {
						"POSITION": "accessor_position_Stars_0eb4db27-3f82-408d-b5a1-19ebd7d5b711_0_i0",
						"NORMAL": "accessor_normal_Stars_0eb4db27-3f82-408d-b5a1-19ebd7d5b711_0_i0",
						"COLOR": "accessor_color_Stars_0eb4db27-3f82-408d-b5a1-19ebd7d5b711_0_i0",
						"TEXCOORD_0": "accessor_uv0_Stars_0eb4db27-3f82-408d-b5a1-19ebd7d5b711_0_i0",
						"TEXCOORD_1": "accessor_uv1_Stars_0eb4db27-3f82-408d-b5a1-19ebd7d5b711_0_i0"
					},
					"indices": "accessor_indices_0_Stars_0eb4db27-3f82-408d-b5a1-19ebd7d5b711_0_i0",
					"material": "material_0eb4db27-3f82-408d-b5a1-19ebd7d5b711",
					"mode": 4
				}
			]
		},
		"mesh_f7SU-dO1FG7_0_0_i3": {
			"name": "mesh_f7SU-dO1FG7_0_0_i3",
			"primitives": [
				{
					"attributes": {
						"POSITION": "accessor_position_f7SU-dO1FG7_0_0_i3",
						"NORMAL": "accessor_normal_f7SU-dO1FG7_0_0_i3",
						"COLOR": "accessor_color_f7SU-dO1FG7_0_0_i3"
					},
					"indices": "accessor_indices_0_f7SU-dO1FG7_0_0_i3",
					"material": "material_0e87b49c-6546-3a34-3a44-8a556d7d6c3e",
					"mode": 4
				}
			]
		},
		"mesh_f7SU-dO1FG7_1_0_i4": {
			"name": "mesh_f7SU-dO1FG7_1_0_i4",
			"primitives": [
				{
					"attributes": {
						"POSITION": "accessor_position_f7SU-dO1FG7_1_0_i4",
						"NORMAL": "accessor_normal_f7SU-dO1FG7_1_0_i4",
						"COLOR": "accessor_color_f7SU-dO1FG7_1_0_i4"
					},
					"indices": "accessor_indices_0_f7SU-dO1FG7_1_0_i4",
					"material": "material_0e87b49c-6546-3a34-3a44-8a556d7d6c3e",
					"mode": 4
				}
			]
		},
		"mesh_f7SU-dO1FG7_2_0_i5": {
			"name": "mesh_f7SU-dO1FG7_2_0_i5",
			"primitives": [
				{
					"attributes": {
						"POSITION": "accessor_position_f7SU-dO1FG7_2_0_i5",
						"NORMAL": "accessor_normal_f7SU-dO1FG7_2_0_i5",
						"COLOR": "accessor_color_f7SU-dO1FG7_2_0_i5"
					},
					"indices": "accessor_indices_0_f7SU-dO1FG7_2_0_i5",
					"material": "material_0e87b49c-6546-3a34-3a44-8a556d7d6c3e",
					"mode": 4
				}
			]
		}
	},
	"shaders": {
		"vertex_0eb4db27-3f82-408d-b5a1-19ebd7d5b711": {
			"type": 35633,
			"uri": "https://www.tiltbrush.com/shaders/brushes/Stars-0eb4db27-3f82-408d-b5a1-19ebd7d5b711/Stars-0eb4db27-3f82-408d-b5a1-19ebd7d5b711-v10.0-vertex.glsl"
		},
		"fragment_0eb4db27-3f82-408d-b5a1-19ebd7d5b711": {
			"type": 35632,
			"uri": "https://www.tiltbrush.com/shaders/brushes/Stars-0eb4db27-3f82-408d-b5a1-19ebd7d5b711/Stars-0eb4db27-3f82-408d-b5a1-19ebd7d5b711-v10.0-fragment.glsl"
		},
		"vertex_0e87b49c-6546-3a34-3a44-8a556d7d6c3e": {
			"type": 35633,
			"uri": "https://www.tiltbrush.com/shaders/brushes/BlocksBasic-0e87b49c-6546-3a34-3a44-8a556d7d6c3e/BlocksBasic-0e87b49c-6546-3a34-3a44-8a556d7d6c3e-v10.0-vertex.glsl"
		},
		"fragment_0e87b49c-6546-3a34-3a44-8a556d7d6c3e": {
			"type": 35632,
			"uri": "https://www.tiltbrush.com/shaders/brushes/BlocksBasic-0e87b49c-6546-3a34-3a44-8a556d7d6c3e/BlocksBasic-0e87b49c-6546-3a34-3a44-8a556d7d6c3e-v10.0-fragment.glsl"
		}
	},
	"programs": {
		"program_0eb4db27-3f82-408d-b5a1-19ebd7d5b711": {
			"attributes": [
				"a_position",
				"a_normal",
				"a_color",
				"a_vertexId",
				"a_texcoord0",
				"a_texcoord1"
			],
			"vertexShader": "vertex_0eb4db27-3f82-408d-b5a1-19ebd7d5b711",
			"fragmentShader": "fragment_0eb4db27-3f82-408d-b5a1-19ebd7d5b711"
		},
		"program_0e87b49c-6546-3a34-3a44-8a556d7d6c3e": {
			"attributes": [
				"a_position",
				"a_normal",
				"a_color"
			],
			"vertexShader": "vertex_0e87b49c-6546-3a34-3a44-8a556d7d6c3e",
			"fragmentShader": "fragment_0e87b49c-6546-3a34-3a44-8a556d7d6c3e"
		}
	},
	"techniques": {
		"technique_0eb4db27-3f82-408d-b5a1-19ebd7d5b711": {
			"program": "program_0eb4db27-3f82-408d-b5a1-19ebd7d5b711",
			"parameters": {
				"position": {
					"type": 35665,
					"semantic": "POSITION"
				},
				"normal": {
					"type": 35665,
					"semantic": "NORMAL"
				},
				"color": {
					"type": 35666,
					"semantic": "COLOR"
				},
				"vertexId": {
					"type": 5126
				},
				"texcoord0": {
					"type": 35666,
					"semantic": "TEXCOORD_0"
				},
				"texcoord1": {
					"type": 35666,
					"semantic": "TEXCOORD_1"
				},
				"modelViewMatrix": {
					"type": 35676,
					"semantic": "MODELVIEW"
				},
				"projectionMatrix": {
					"type": 35676,
					"semantic": "PROJECTION"
				},
				"normalMatrix": {
					"type": 35675,
					"semantic": "MODELVIEWINVERSETRANSPOSE"
				},
				"SceneLight_0_matrix": {
					"type": 35676,
					"semantic": "MODELVIEW",
					"node": "node_SceneLight_0_i1"
				},
				"SceneLight_0_color": {
					"type": 35666,
					"node": "node_SceneLight_0_i1"
				},
				"SceneLight_1_matrix": {
					"type": 35676,
					"semantic": "MODELVIEW",
					"node": "node_SceneLight_1_i2"
				},
				"SceneLight_1_color": {
					"type": 35666,
					"node": "node_SceneLight_1_i2"
				},
				"ambient_light_color": {
					"type": 35666
				},
				"SparkleRate": {
					"type": 5126
				},
				"SpreadRate": {
					"type": 5126
				},
				"MainTex_TexelSize": {
					"type": 35666
				},
				"MainTex": {
					"type": 35678
				}
			},
			"attributes": {
				"a_position": "position",
				"a_normal": "normal",
				"a_color": "color",
				"a_vertexId": "vertexId",
				"a_texcoord0": "texcoord0",
				"a_texcoord1": "texcoord1"
			},
			"uniforms": {
				"u_modelViewMatrix": "modelViewMatrix",
				"u_projectionMatrix": "projectionMatrix",
				"u_normalMatrix": "normalMatrix",
				"u_SceneLight_0_matrix": "SceneLight_0_matrix",
				"u_SceneLight_0_color": "SceneLight_0_color",
				"u_SceneLight_1_matrix": "SceneLight_1_matrix",
				"u_SceneLight_1_color": "SceneLight_1_color",
				"u_ambient_light_color": "ambient_light_color",
				"u_SparkleRate": "SparkleRate",
				"u_SpreadRate": "SpreadRate",
				"u_MainTex_TexelSize": "MainTex_TexelSize",
				"u_MainTex": "MainTex"
			},
			"states": {
				"enable": [
					2929,
					3042
				],
				"functions": {
					"blendFuncSeparate": [1, 1, 1, 1],
					"depthMask": [false]
				}
			}
		},
		"technique_0e87b49c-6546-3a34-3a44-8a556d7d6c3e": {
			"program": "program_0e87b49c-6546-3a34-3a44-8a556d7d6c3e",
			"parameters": {
				"position": {
					"type": 35665,
					"semantic": "POSITION"
				},
				"normal": {
					"type": 35665,
					"semantic": "NORMAL"
				},
				"color": {
					"type": 35666,
					"semantic": "COLOR"
				},
				"modelViewMatrix": {
					"type": 35676,
					"semantic": "MODELVIEW"
				},
				"projectionMatrix": {
					"type": 35676,
					"semantic": "PROJECTION"
				},
				"normalMatrix": {
					"type": 35675,
					"semantic": "MODELVIEWINVERSETRANSPOSE"
				},
				"SceneLight_0_matrix": {
					"type": 35676,
					"semantic": "MODELVIEW",
					"node": "node_SceneLight_0_i1"
				},
				"SceneLight_0_color": {
					"type": 35666,
					"node": "node_SceneLight_0_i1"
				},
				"SceneLight_1_matrix": {
					"type": 35676,
					"semantic": "MODELVIEW",
					"node": "node_SceneLight_1_i2"
				},
				"SceneLight_1_color": {
					"type": 35666,
					"node": "node_SceneLight_1_i2"
				},
				"ambient_light_color": {
					"type": 35666
				},
				"Shininess": {
					"type": 5126
				},
				"Color": {
					"type": 35666
				},
				"SpecColor": {
					"type": 35666
				}
			},
			"attributes": {
				"a_position": "position",
				"a_normal": "normal",
				"a_color": "color"
			},
			"uniforms": {
				"u_modelViewMatrix": "modelViewMatrix",
				"u_projectionMatrix": "projectionMatrix",
				"u_normalMatrix": "normalMatrix",
				"u_SceneLight_0_matrix": "SceneLight_0_matrix",
				"u_SceneLight_0_color": "SceneLight_0_color",
				"u_SceneLight_1_matrix": "SceneLight_1_matrix",
				"u_SceneLight_1_color": "SceneLight_1_color",
				"u_ambient_light_color": "ambient_light_color",
				"u_Shininess": "Shininess",
				"u_Color": "Color",
				"u_SpecColor": "SpecColor"
			},
			"states": {
				"enable": [
					2929,
					2884
				],
				"functions": {
					"depthMask": [true]
				}
			}
		}
	},
	"samplers": {
		"sampler_LINEAR_LINEAR_MIPMAP_LINEAR_REPEAT": {
			"magFilter": 9729,
			"minFilter": 9987,
			"wrapS": 10497,
			"wrapT": 10497
		}
	},
	"textures": {
		"texture_0eb4db27-3f82-408d-b5a1-19ebd7d5b711_MainTex": {
			"format": 6408,
			"internalFormat": 6408,
			"sampler": "sampler_LINEAR_LINEAR_MIPMAP_LINEAR_REPEAT",
			"source": "image_0eb4db27-3f82-408d-b5a1-19ebd7d5b711_MainTex",
			"target": 3553,
			"type": 5121
		}
	},
	"images": {
		"image_0eb4db27-3f82-408d-b5a1-19ebd7d5b711_MainTex": {
			"uri": "https://www.tiltbrush.com/shaders/brushes/Stars-0eb4db27-3f82-408d-b5a1-19ebd7d5b711/Stars-0eb4db27-3f82-408d-b5a1-19ebd7d5b711-v10.0-MainTex.png"
		}
	},
	"materials": {
		"material_0eb4db27-3f82-408d-b5a1-19ebd7d5b711": {
			"technique": "technique_0eb4db27-3f82-408d-b5a1-19ebd7d5b711",
			"values": {
				"SceneLight_0_color": [1.553333, 1.406667, 1.773333, 1],
				"SceneLight_1_color": [0.2712157, 0.2667451, 0.2190588, 1],
				"ambient_light_color": [0.2039216, 0.2941177, 0.3686275, 1],
				"SparkleRate": 5.3,
				"SpreadRate": 1.539,
				"MainTex_TexelSize": [0.001953125, 0.001953125, 512, 512],
				"MainTex": "texture_0eb4db27-3f82-408d-b5a1-19ebd7d5b711_MainTex"
			},
			"name": "material_0eb4db27-3f82-408d-b5a1-19ebd7d5b711"
		},
		"material_0e87b49c-6546-3a34-3a44-8a556d7d6c3e": {
			"technique": "technique_0e87b49c-6546-3a34-3a44-8a556d7d6c3e",
			"values": {
				"SceneLight_0_color": [1.553333, 1.406667, 1.773333, 1],
				"SceneLight_1_color": [0.2712157, 0.2667451, 0.2190588, 1],
				"ambient_light_color": [0.2039216, 0.2941177, 0.3686275, 1],
				"Shininess": 0.2,
				"Color": [1, 1, 1, 1],
				"SpecColor": [0.1960784, 0.1960784, 0.1960784, 1]
			},
			"name": "material_0e87b49c-6546-3a34-3a44-8a556d7d6c3e"
		}
	},
	"nodes": {
		"node_Stars_0eb4db27-3f82-408d-b5a1-19ebd7d5b711_0_i0": {
			"name": "node_Stars_0eb4db27-3f82-408d-b5a1-19ebd7d5b711_0_i0",
			"meshes": [
				"mesh_Stars_0eb4db27-3f82-408d-b5a1-19ebd7d5b711_0_i0"
			],
			"matrix": [1, 0, 0, 0, 0, 1, 0, 0, 0, 0, 1, 0, 0, 0, 0, 1]
		},
		"node_SceneLight_0_i1": {
			"name": "node_SceneLight_0_i1",
			"light": "SceneLight_0",
			"matrix": [0.898794, 0.2191856, -0.3796406, 0, -0.4383712, 0.449397, -0.7783785, 0, -1.490116E-08, 0.8660254, 0.4999999, 0, 0.2099634, 0.4087604, 0.1220312, 1]
		},
		"node_SceneLight_1_i2": {
			"name": "node_SceneLight_1_i2",
			"light": "SceneLight_1",
			"matrix": [0.7660446, -0.4924039, -0.4131757, 0, -0.6427875, -0.5868244, -0.4924039, 0, 2.980232E-08, 0.6427875, -0.7660447, 0, 0.2099634, 0.4008497, 0.07716747, 1]
		},
		"node_f7SU-dO1FG7_0_0_i3": {
			"name": "node_f7SU-dO1FG7_0_0_i3",
			"meshes": [
				"mesh_f7SU-dO1FG7_0_0_i3"
			],
			"matrix": [0.146857, -0.005312371, -0.6796746, 0, 0.01607501, 0.695191, -0.001960327, 0, 0.6795052, -0.01529796, 0.14694, 0, -0.1602579, -0.6287182, 0.01348859, 1]
		},
		"node_f7SU-dO1FG7_1_0_i4": {
			"name": "node_f7SU-dO1FG7_1_0_i4",
			"meshes": [
				"mesh_f7SU-dO1FG7_1_0_i4"
			],
			"matrix": [0.146857, -0.005312371, -0.6796746, 0, 0.01607501, 0.695191, -0.001960327, 0, 0.6795052, -0.01529796, 0.14694, 0, -0.1602579, -0.6287182, 0.01348859, 1]
		},
		"node_f7SU-dO1FG7_2_0_i5": {
			"name": "node_f7SU-dO1FG7_2_0_i5",
			"meshes": [
				"mesh_f7SU-dO1FG7_2_0_i5"
			],
			"matrix": [0.146857, -0.005312371, -0.6796746, 0, 0.01607501, 0.695191, -0.001960327, 0, 0.6795052, -0.01529796, 0.14694, 0, -0.1602579, -0.6287182, 0.01348859, 1]
		}
	},
	"scene": "defaultScene",
	"scenes": {
		"defaultScene": {
			"nodes": [
				"node_Stars_0eb4db27-3f82-408d-b5a1-19ebd7d5b711_0_i0",
				"node_SceneLight_0_i1",
				"node_SceneLight_1_i2",
				"node_f7SU-dO1FG7_0_0_i3",
				"node_f7SU-dO1FG7_1_0_i4",
				"node_f7SU-dO1FG7_2_0_i5"
			],
			"extras": {
				"TB_EnvironmentGuid": "0ca88298-e5e8-4e94-aad8-4b4f6c80ae52",
				"TB_Environment": "Blue",
				"TB_UseGradient": "false",
				"TB_SkyColorA": "0.1803922, 0.2352941, 0.4117647",
				"TB_SkyColorB": "0.3568628, 0.3921569, 0.6",
				"TB_SkyGradientDirection": "0, 1, 0",
				"TB_FogColor": "0.6313726, 0.7137255, 0.8941177",
				"TB_FogDensity": "0.005",
				"TB_SkyColorHorizon": "0.1803922, 0.2352941, 0.4117647",
				"TB_SkyColorZenith": "0.3568628, 0.3921569, 0.6"
			}
		}
	}
}